# xmcd CD database file
#
# Track frame offsets:
#	150
#	14004
#	26053
#	39791
#	53231
#	67051
#	81956
#	93633
#	108310
#	124081
#	137610
#	152510
#	167176
#
# Disc length: 2448 seconds
#
# Revision: 0
# Processed by: cddbd v1.5.2PL0 Copyright (c) Steve Scherf et al.
# Submitted via: CDex 1.51
#
DISCID=ab098e0d
DTITLE=ZILLERTALER HADERLUMPEN - 2 HERZEN 1 EWIGKEIT
DYEAR=1900
DGENRE=Volkstümlich
TTITLE0=NO NO NO
TTITLE1=VOLL UND GANZ
TTITLE2=SOLANG DIE ERDE SICH NOCH DREHT
TTITLE3=HAENDE HOCH
TTITLE4=2 HERZEN 1 EWIGKEIT
TTITLE5=40 50 60 ODER MEHR
TTITLE6=ICH MUSS WIEDER MAL INS ZILLERTAL
TTITLE7=DIE GROESSTE PARTY IST DAS LEBEN
TTITLE8=GEH NICHT FORT WENN DU MICH LIEBST
TTITLE9=ZILLERTALER HADERLUMPEN - HEUT IST UNSER TAG
TTITLE10=CH FANGE NIE MEHR WAS AN EINEM SONNTAG AN
TTITLE11=A BOARISCHER GEHT IMMER NO
TTITLE12=1 2 3000 JAHRE PARTYMIX
EXTD=
EXTT0=
EXTT1=
EXTT2=
EXTT3=
EXTT4=
EXTT5=
EXTT6=
EXTT7=
EXTT8=
EXTT9=
EXTT10=
EXTT11=
EXTT12=
PLAYORDER=
